<svg xmlns="http://www.w3.org/2000/svg" width="512" height="512" viewBox="0 0 512 512">
  <rect width="512" height="512" rx="64" fill="#22c55e"/>
  <g transform="translate(96, 96)" stroke="#ffffff" stroke-width="16" fill="none" stroke-linecap="round" stroke-linejoin="round">
    <path d="M120 240h80"/>
    <path d="M160 240c55-25 8-64 30-100"/>
    <path d="M150 118c11 8 18 22 23 37-20 4-35 4-48-3-12-6-23-19-30-42 28-5 44 0 55 8z"/>
    <path d="M181 76a70 70 0 0 0-11 40c19-1 33-6 43-14 10-10 16-23 17-46-27 1-40 10-49 20z"/>
  </g>
</svg>
