<svg xmlns="http://www.w3.org/2000/svg" width="192" height="192" viewBox="0 0 192 192">
  <rect width="192" height="192" rx="32" fill="#22c55e"/>
  <g transform="translate(32, 32)" stroke="#ffffff" stroke-width="8" fill="none" stroke-linecap="round" stroke-linejoin="round">
    <path d="M56 112h16"/>
    <path d="M64 112c22-10 3.2-25.6 12-40"/>
    <path d="M60 66c4.4 3.2 7.2 8.8 9.2 14.8-8 1.6-14 1.6-19.2-1.2-4.8-2.4-9.2-7.6-12-16.8 11.2-2 17.6 0 22 3.2z"/>
    <path d="M78.4 52.8a28 28 0 0 0-4.4 16c7.6-.4 13.2-2.4 17.2-5.6 4-4 6.4-9.2 6.8-18.4-10.8.4-16 4-19.6 8z"/>
  </g>
</svg>
